<svg width="69" height="69" viewBox="0 0 69 69" fill="none" xmlns="http://www.w3.org/2000/svg">
<mask id="path-1-outside-1_178_620" maskUnits="userSpaceOnUse" x="1.4541" y="1.40833" width="66" height="66" fill="black">
<rect fill="white" x="1.4541" y="1.40833" width="66" height="66"/>
<path d="M43.4492 25.4034H64.4541V43.4034H43.4492V64.4083H25.4492V43.4034H4.4541V25.4034H25.4492V4.40833H43.4492V25.4034Z"/>
</mask>
<path d="M43.4492 25.4034H64.4541V43.4034H43.4492V64.4083H25.4492V43.4034H4.4541V25.4034H25.4492V4.40833H43.4492V25.4034Z" fill="white"/>
<path d="M43.4492 25.4034H40.4492V28.4034H43.4492V25.4034ZM64.4541 25.4034H67.4541V22.4034H64.4541V25.4034ZM64.4541 43.4034V46.4034H67.4541V43.4034H64.4541ZM43.4492 43.4034V40.4034H40.4492V43.4034H43.4492ZM43.4492 64.4083V67.4083H46.4492V64.4083H43.4492ZM25.4492 64.4083H22.4492V67.4083H25.4492V64.4083ZM25.4492 43.4034H28.4492V40.4034H25.4492V43.4034ZM4.4541 43.4034H1.4541V46.4034H4.4541V43.4034ZM4.4541 25.4034V22.4034H1.4541V25.4034H4.4541ZM25.4492 25.4034V28.4034H28.4492V25.4034H25.4492ZM25.4492 4.40833V1.40833H22.4492V4.40833H25.4492ZM43.4492 4.40833H46.4492V1.40833H43.4492V4.40833ZM43.4492 25.4034V28.4034H64.4541V25.4034V22.4034H43.4492V25.4034ZM64.4541 25.4034H61.4541V43.4034H64.4541H67.4541V25.4034H64.4541ZM64.4541 43.4034V40.4034H43.4492V43.4034V46.4034H64.4541V43.4034ZM43.4492 43.4034H40.4492V64.4083H43.4492H46.4492V43.4034H43.4492ZM43.4492 64.4083V61.4083H25.4492V64.4083V67.4083H43.4492V64.4083ZM25.4492 64.4083H28.4492V43.4034H25.4492H22.4492V64.4083H25.4492ZM25.4492 43.4034V40.4034H4.4541V43.4034V46.4034H25.4492V43.4034ZM4.4541 43.4034H7.4541V25.4034H4.4541H1.4541V43.4034H4.4541ZM4.4541 25.4034V28.4034H25.4492V25.4034V22.4034H4.4541V25.4034ZM25.4492 25.4034H28.4492V4.40833H25.4492H22.4492V25.4034H25.4492ZM25.4492 4.40833V7.40833H43.4492V4.40833V1.40833H25.4492V4.40833ZM43.4492 4.40833H40.4492V25.4034H43.4492H46.4492V4.40833H43.4492Z" fill="black" mask="url(#path-1-outside-1_178_620)"/>
</svg>
